<svg xmlns="http://www.w3.org/2000/svg" viewBox="0 0 512 512" role="img" aria-labelledby="title desc">
  <title id="title">Fovea aperture</title>
  <desc id="desc">A six-blade aperture surrounding a bright central fovea.</desc>
  <defs>
    <linearGradient id="background" x1="72" y1="56" x2="432" y2="456" gradientUnits="userSpaceOnUse">
      <stop stop-color="#17374A"/><stop offset="1" stop-color="#091017"/>
    </linearGradient>
    <linearGradient id="blade" x1="132" y1="104" x2="380" y2="408" gradientUnits="userSpaceOnUse">
      <stop stop-color="#8DE9FA"/><stop offset="1" stop-color="#58BEEB"/>
    </linearGradient>
  </defs>
  <rect x="20" y="20" width="472" height="472" rx="112" fill="url(#background)"/>
  <g fill="url(#blade)">
    <path d="M256 76c58 0 111 27 144 69l-123 37-85-98c20-5 42-8 64-8Z"/>
    <path d="M412 157c29 50 31 110 10 159l-94-87 36-125c18 15 34 33 48 53Z"/>
    <path d="M414 330c-29 50-80 82-134 90l29-125 126-28c-3 22-10 43-21 63Z"/>
    <path d="M264 436c-58 0-111-27-144-69l123-37 85 98c-20 5-42 8-64 8Z"/>
    <path d="M100 355c-29-50-31-110-10-159l94 87-36 125c-18-15-34-33-48-53Z"/>
    <path d="M98 182c29-50 80-82 134-90l-29 125-126 28c3-22 10-43 21-63Z"/>
  </g>
  <circle cx="256" cy="256" r="57" fill="#F5FCFF"/>
  <circle cx="256" cy="256" r="25" fill="#122B3A"/>
</svg>
